<?xml version="1.0" encoding="utf-8"?>
<!-- Generator: Adobe Illustrator 18.0.0, SVG Export Plug-In . SVG Version: 6.00 Build 0)  -->
<!DOCTYPE svg PUBLIC "-//W3C//DTD SVG 1.1//EN" "http://www.w3.org/Graphics/SVG/1.1/DTD/svg11.dtd">
<svg version="1.1" id="BattleNet" xmlns="http://www.w3.org/2000/svg" xmlns:xlink="http://www.w3.org/1999/xlink" x="0px" y="0px"
	 viewBox="0 0 512 512" enable-background="new 0 0 512 512" xml:space="preserve">
<path id="BattleNet_1_" fill="#FFFFFF" d="M412.5,248.9c0,0,38.7,2,38.7-20.8c0-29.7-51.5-56.6-51.5-56.6s8-17.2,13.1-26.7
	c5-9.6,19.2-46.9,20.5-55.5c1.6-10.7-0.8-14.1-0.8-14.1c-3.5,22.9-40.9,89.1-43.8,91.4c-36.5-17.2-86.6-21.9-86.6-21.9
	S252.9,41.6,206.7,41.6c-45.8,0-45.5,88.5-45.5,88.5S148.3,105,132.1,105c-23.7,0-31.5,35.9-31.5,74.8c-46.9,0-86.3,10.5-89.8,11.5
	c-3.5,1-14.6,9.1-9.6,8c10.2-3.3,58.4-10.8,100.5-7.1c2.4,37,23.9,85.2,23.9,85.2s-46.3,67-46.3,114.9c0,12.6,5.5,35.7,38.7,35.7
	c27.8,0,59.1-16.8,65-20.2c-5.1,7.4-8.9,21.3-8.9,27.7c0,5.3,3.1,20.1,24.6,20.1c27.5,0,58.3-21.2,58.3-21.2s29.1,48.3,53.9,70.5
	c6.7,6,13.1,7.1,13.1,7.1s-24.7-23.8-57.2-85.1c30.2-18.7,61.8-62.7,61.8-62.7s3.7,0.1,32.4,0.1c45,0,108.9-9.5,108.9-45.2
	C469.9,282.2,412.5,248.9,412.5,248.9z M417.6,226.8c0,13-12.4,12.9-12.4,12.9l-9.4,0.6c0,0-17.9-9.4-28.8-13.8
	c0,0,16.9-26,20.8-33.1C390.6,195,417.6,211.8,417.6,226.8z M229.3,93.7c21.2,0,51.4,49.9,51.4,49.9s-47.1-4.2-85.9,18.5
	C195.8,126.2,207.9,93.7,229.3,93.7z M145.5,134.1c6.8,0,13.3,8.1,16,15.1c0,4.6,2.4,31.4,2.4,31.4l-38.8-1.5
	C125.1,144,138.8,134.1,145.5,134.1z M141.4,377.3c-21.2,0-25.6-11.9-25.6-22.4c0-24.1,19.2-57.8,19.2-57.8s21.6,45.4,59.2,64.5
	C175.6,372.4,160.2,377.3,141.4,377.3z M210.3,424.8c-14.9,0-16.7-9.6-16.7-11.9c0-7,5.4-15.1,5.4-15.1s25-16.9,26.6-18.7l18.5,34.5
	C244.2,413.6,225.2,424.8,210.3,424.8z M256.8,405.9c-9-15.9-15.7-32.3-15.7-32.3s37.1,2.5,57.1-18.2c-12.4,5.6-32.3,12.6-55.4,10.6
	c48.3-42.5,76.5-73.4,100.3-105.3c-2.1-2.5-12.9-10.1-15.6-11.4c-14.4,17.3-70.3,77.1-122.1,106.7c-65.6-35.8-79.3-141-80.8-162.9
	l35.8,3.4c0,0-13.4,23.8-13.4,41.5s2.1,18.5,2.1,18.5s-0.5-30.6,18.4-54.2c14.4,76.7,29.4,116,41.1,139.4c6-2.5,17.1-7.4,17.1-7.4
	s-33.1-95.4-31.3-160c15-8,37.2-16.3,62.2-16.3c66,0,119,28.4,119,28.4l-20.8,29c0,0-18.5-33.5-44.6-39.5
	c13.7,10.3,29.2,23.8,37.2,43.4c-54.7-21.4-120.7-32.6-141.8-35.2c-1.9,7.8-1.6,18.9-1.6,18.9s88.5,16.4,152.9,53.2
	C356.7,336.9,268.9,398.8,256.8,405.9z M340.6,345.8c0,0,27.4-36.1,27.1-83.8c0,0,44.4,27.4,44.4,54.3
	C412,346.2,340.6,345.8,340.6,345.8z"/>
</svg>
