<?xml version="1.0" encoding="utf-8"?>
<!-- Generator: Adobe Illustrator 18.0.0, SVG Export Plug-In . SVG Version: 6.00 Build 0)  -->
<!DOCTYPE svg PUBLIC "-//W3C//DTD SVG 1.1//EN" "http://www.w3.org/Graphics/SVG/1.1/DTD/svg11.dtd">
<svg version="1.1" id="CCleaner_1_" xmlns="http://www.w3.org/2000/svg" xmlns:xlink="http://www.w3.org/1999/xlink" x="0px"
	 y="0px" viewBox="0 0 512 512" enable-background="new 0 0 512 512" xml:space="preserve">
<g id="CCleaner">
	<path fill="#FFFFFF" d="M160.8,446.1c-0.5-5.2-2.4-6.4-6.9-2.9c-2.4,1.9-6,2.4-9.2,2.9c-3.3,0.5-6.7-0.3-10,0.2
		c-24.9,3.2-42.9-11.7-62-23.6c-3.8-2.4-2.6-4.6,0.6-6.4c3.3-1.9,6.8-3.5,9.9-5.6c1.4-0.9,2.2-2.8,3.2-4.3c-1.5-0.5-3.1-1.3-4.6-1.4
		c-4-0.1-8.1-0.3-12,0.2c-11.8,1.5-20.6-3.8-28.5-11.7C26.2,378.4,14,361.4,6.6,341.1c-2.7-7.3-2.6-8.2,5-10.1
		c25.8-6.2,49.6-16.8,71.8-31.4c20.6-13.5,37.2-31.2,51.9-50.6c8.6-11.4,15.3-24.2,23.4-36c7.6-10.9,8.6-10.9,20.9-5.7
		c8,3.4,15.8,7.2,23.6,10.8c7.3,3.3,10.4,2.3,13.8-4.9c21.7-45.9,43.3-91.7,65-137.6c2.9-6.1,6.3-11.3,14.2-11
		c9.3,0.4,14.6,6.1,11.9,14.9c-3.5,11.5-8,22.6-12.5,33.7c-15,37.3-30.2,74.6-45.4,111.9c-3.6,8.9-3.4,9.4,5.7,13.1
		c8.9,3.6,17.7,7.2,26.6,10.8c4.4,1.8,6.9,4.7,6.2,9.8c-2.3,15.9-4.4,31.8-6.9,47.6c-0.4,2.4-2.7,4.5-4,6.8
		c-1.6,2.9-3.4,5.7-4.5,8.7c-11.6,30.9-23.7,61.6-45.2,87.3c-9.1,10.9-19.3,21.1-30.1,30.3c-4.6,3.9-12.1,5.1-18.5,6.2
		C173.4,446.9,167.2,446.1,160.8,446.1z"/>
	<path fill="#FFFFFF" d="M282.3,166.6c4.7-12,9.5-24.2,14.3-36.3c4.9-12.4,10.5-24.6,14.7-37.2c2.3-6.8,3.2-14.3,3.3-21.5
		c0.1-3.4-2.4-8-5.1-10.1c-9.6-7.4-27.9-2.5-33.2,8.5c-8.4,17.7-16.6,35.5-25,53.2c-13.7,29-27.4,57.9-41.2,86.9
		c-0.3,0.6-0.9,1-1.6,1.7c-8.4-3.6-16.9-7.4-25.5-10.9c-2.9-1.2-5.8-2.5-8.8-3c-7.4-1.2-14.1-0.3-18.9,6.6
		c-7.7,10.9-17,21-23.2,32.6c-10.6,20-26.6,34.6-43.2,49c-0.6,0.5-1.5,0.7-4.2,2c-0.3-16.4-1.8-31.8-0.7-47
		c3-40.8,16.3-78.3,40.7-111.4c29.3-39.7,67.6-66.2,115.1-79.9c25-7.2,50.5-9.5,76-7.1c61.7,5.9,112.2,33.4,151,82.1
		c4,5,4.2,9.2-0.1,14.1c-21,24-41.7,48.2-62.8,72.1c-4.9,5.6-9.2,5-15-1.9c-12.7-15.3-28.5-26.1-46.6-33.8
		c-17.4-7.4-35.3-10.8-54.1-8c-1.5,0.2-3.1,0.2-4.7,0.1C283.5,167.7,283.1,167.2,282.3,166.6z"/>
	<path fill="#FFFFFF" d="M200.4,446.3c2.8-1.8,5.1-2.8,6.9-4.3c29.1-25,48.8-56.4,62.6-91.8c2.1-5.5,4.1-7,10.6-5.3
		c17.7,4.6,35.4,1.8,52.7-2.9c23.9-6.6,44-19,58.6-39.6c4.8-6.8,8.6-7.1,14.7-1c21.7,21.7,43.3,43.6,65,65.4
		c4.8,4.8,4.4,9.6,0.6,14.9c-19.7,27.5-44.9,48.7-74.6,64.5c-37.1,19.7-77.1,26.1-118.4,23.1c-25.8-1.9-50.8-8.5-74.2-20.2
		C204.1,448.7,203.4,448.2,200.4,446.3z"/>
</g>
</svg>
