<?xml version="1.0" encoding="utf-8"?>
<!-- Generator: Adobe Illustrator 18.0.0, SVG Export Plug-In . SVG Version: 6.00 Build 0)  -->
<!DOCTYPE svg PUBLIC "-//W3C//DTD SVG 1.1//EN" "http://www.w3.org/Graphics/SVG/1.1/DTD/svg11.dtd">
<svg version="1.1" id="DbVisualizer" xmlns="http://www.w3.org/2000/svg" xmlns:xlink="http://www.w3.org/1999/xlink" x="0px"
	 y="0px" viewBox="0 0 512 512" enable-background="new 0 0 512 512" xml:space="preserve">
<path fill="#FFFFFF" d="M398.9,144.5c-8-2.7-15.5-5.8-23.3-7.7c-56.6-13.9-105.5,0-146.5,41.1c-11.5,11.5-20.1,25.2-26.8,40
	c-1,2.3-1.4,4.9-5.3,4.7c-33.1-1.4-65.6-5.8-97.3-15.8c-15.6-4.9-30.8-10.9-44.1-20.6c-6.4-4.7-12.1-10.3-17.4-16.2
	c-5.1-5.7-7.3-12.8-7.3-20.7c0.2-23.8,0.4-47.7,0-71.5c-0.3-15.3,7.7-25.6,18.6-34.6c15.4-12.8,33.6-20.2,52.4-26
	C128.3,9,155.5,4.1,183.3,3c18.8-0.7,37.6-1.7,56.4-0.6c41.6,2.3,82.4,8.9,120.3,27.7c11.2,5.6,21.6,12.5,29.7,22.3
	c6,7.3,9.3,15.4,9.3,25.1C398.8,99.8,398.9,122.1,398.9,144.5z M214.2,130.2c22.7,0.3,45.2-1.5,67.6-5.3
	c24.5-4.1,48.5-10.2,70.8-21.7c8.9-4.6,17.5-9.8,23.5-18.2c5-7,5.3-12.4-0.1-19.1c-3.4-4.2-7.5-8-12-11.2
	C347.7,43.3,329.1,36.9,310,32C269.4,21.6,228,19,186.2,21.7c-25,1.6-49.6,5.2-73.7,12.2C94,39.3,76.1,46,60.9,58.2
	c-14.4,11.5-14.5,22.7-0.3,34.4c10.8,8.9,23.3,14.7,36.4,19.4C134.9,125.6,174.2,129.9,214.2,130.2z"/>
<path fill="#FFFFFF" d="M325,428c-25.7,8.1-51.7,13-78.4,14.1c-18.8,0.8-37.6,1.6-56.4,0.7c-38.8-1.9-76.9-8-112.8-23.9
	c-14.8-6.6-28.9-14.5-39-27.8c-5-6.5-7.8-13.6-7.7-22.1c0.2-20.8,0.1-41.7,0.1-62.5c0-1.6,0-3.2,0-4.8c7.8,22.9,26.6,33.5,46.5,42.6
	c29.7,13.6,61.4,19.8,93.7,22.7c14.7,1.3,29.6,1.5,44.4,2.6c2.1,0.1,4.5,1.9,5.9,3.5c14.3,17.1,31.2,30.8,51.3,40.4
	c15.4,7.4,31.6,12,48.6,13.8C322.5,427.4,323.8,427.7,325,428z"/>
<path fill="#FFFFFF" d="M465.1,279.8c0.4,66.9-53.6,129.9-130.9,128.1c-68.6-1.6-126.9-57.7-125.1-131.1
	c1.7-69.6,57.7-124.9,127.7-124.9C409.2,151.9,465.5,210.4,465.1,279.8z M443.2,279.8c0-57.9-47.5-105.8-104.9-105.9
	c-59.5-0.1-107.3,46.8-107.4,105.3c-0.1,58.9,47.4,106.8,106.1,106.9C395.4,386.2,443.2,338.3,443.2,279.8z"/>
<path fill="#FFFFFF" d="M189.6,258.3c0,12.9-0.9,25.4,0.3,37.7c1.2,12.3,4.6,24.3,7.1,37c-9.2-0.7-19.1-1.1-28.9-2.1
	c-28.4-3-56.3-8.3-82.9-18.9c-16.8-6.7-32.8-14.8-45-28.8c-6.1-7-9.6-14.9-9.4-24.5c0.3-20.8,0.1-41.7,0.1-62.5c0-1.6,0-3.2,0-4.7
	c8.2,23.5,27.9,34.1,48.4,43.3c27,12.1,55.7,17.8,84.9,21.2C172.6,257,181,257.5,189.6,258.3z"/>
<path fill="#FFFFFF" d="M377.7,414c18.6-10.7,36.7-21.2,55.4-32c14.3,24.7,28.5,49.2,43,74.2c-18.6,10.7-36.8,21.3-55.5,32.1
	C406.3,463.6,392.1,439.1,377.7,414z"/>
<path fill="#FFFFFF" d="M480.8,465.4c5.7,12.7,5.8,34.6-9.7,43.3c-11.4,6.3-37.2,6.3-45.1-11.6C444,486.6,462.2,476.1,480.8,465.4z"
	/>
</svg>
