<?xml version="1.0" encoding="utf-8"?>
<!-- Generator: Adobe Illustrator 18.0.0, SVG Export Plug-In . SVG Version: 6.00 Build 0)  -->
<!DOCTYPE svg PUBLIC "-//W3C//DTD SVG 1.1//EN" "http://www.w3.org/Graphics/SVG/1.1/DTD/svg11.dtd">
<svg version="1.1" id="Eclipse_1_" xmlns="http://www.w3.org/2000/svg" xmlns:xlink="http://www.w3.org/1999/xlink" x="0px" y="0px"
	 viewBox="0 0 512 512" enable-background="new 0 0 512 512" xml:space="preserve">
<g id="Eclipse">
	<path fill="#FFFFFF" d="M229.2,490c-3.5-0.4-6.9-0.9-10.4-1.2c-34.3-3-66.3-13.3-96-30.6c-39.9-23.2-70.3-55.6-91.4-96.6
		C20.2,339.9,12.9,317,9.1,292.9c-2.3-14.7-3.6-29.5-3-44.4c2.1-49.7,17.7-94.7,48-134.3c26-34,58.9-59,98.5-75.2
		c17.7-7.2,36.1-12.1,55.1-14.7c13-1.8,26-2.6,39.2-2.1c-7,1.5-13.9,3-20.8,4.7c-32.6,8-62.2,22.4-88.7,43
		c-43.9,34.3-73,78.4-86.2,132.7c-5,20.5-6.8,41.3-6,62.4c1.9,46.3,16.2,88.3,42.9,125.9c28.5,40.1,66,68.8,112,86.2
		c14.9,5.6,30.3,9.6,46,12.3c0.6,0.1,1.1,0.4,1.7,0.6C241.7,490,235.4,490,229.2,490z"/>
	<path fill="#FFFFFF" d="M506,274.4c-0.4,2.8-0.9,5.6-1.2,8.5c-0.5,4.1-0.9,8.2-1.4,12.5c-147.4,0-294.7,0-442.5,0
		c-0.9-8.8-1.9-17.8-2.9-27.2c149.8,0,298.8,0,447.9,0C506,270.2,506,272.3,506,274.4z"/>
	<path fill="#FFFFFF" d="M506,243.8c-149,0-298,0-447.9,0c0.9-9.2,1.9-18.2,2.8-27.5c1.6,0,2.9,0,4.2,0c144.2,0,288.5,0,432.7,0
		c5.8,0,5.8,0,6.3,5.7c0.4,4.7,0.8,9.4,1.3,14.2c0,0.5,0.4,0.9,0.6,1.4C506,239.6,506,241.7,506,243.8z"/>
	<path fill="#FFFFFF" d="M67.1,191.1C88.8,112.6,171,31.2,282.4,31.3c112.2,0.1,193.6,83.4,214.7,159.8
		C353.9,191.1,210.6,191.1,67.1,191.1z"/>
	<path fill="#FFFFFF" d="M497.2,320.7C475.3,398.8,391.4,483.5,280.4,480c-110.8,1.7-192.5-83.6-213.2-159.3
		C210.4,320.7,353.7,320.7,497.2,320.7z"/>
</g>
</svg>
