<?xml version="1.0" encoding="utf-8"?>
<!-- Generator: Adobe Illustrator 18.0.0, SVG Export Plug-In . SVG Version: 6.00 Build 0)  -->
<!DOCTYPE svg PUBLIC "-//W3C//DTD SVG 1.1//EN" "http://www.w3.org/Graphics/SVG/1.1/DTD/svg11.dtd">
<svg version="1.1" id="EpicGames_1_" xmlns="http://www.w3.org/2000/svg" xmlns:xlink="http://www.w3.org/1999/xlink" x="0px"
	 y="0px" viewBox="0 0 512 512" enable-background="new 0 0 512 512" xml:space="preserve">
<g id="EpicGames">
	<path fill="#FFFFFF" d="M471.7,217.8c0,57.3,0,114.5-0.1,171.8c0,5.7-0.6,11.3-1.3,16.9c-1.1,8.3-6,14.2-13.3,17.6
		c-10.7,5-21.7,9.5-32.6,14.1c-34.7,14.6-69.4,29-104.1,43.6c-17,7.1-34.1,14.3-51.1,21.6c-9.7,4.1-18.9,3.3-28.4-0.8
		c-27.4-11.7-54.9-23.2-82.4-34.7c-32.9-13.8-65.7-27.5-98.6-41.3c-4.9-2-9.4-4.7-13-8.6c-4.2-4.6-5.5-10.5-5.9-16.5
		c-0.3-5.4-0.5-10.9-0.5-16.4c0-113.8,0-227.7,0.1-341.5c0-5.3,0.7-10.6,1.8-15.7c2.8-12,11-18.5,22.9-20.4
		c5.3-0.8,10.7-1.3,16.1-1.3C197.8,6,314.5,6,431.1,6c6.5,0,12.9,0.4,19.3,2.1c11.3,3.1,17.8,10.6,19.9,21.9
		c0.9,5.3,1.4,10.7,1.4,16C471.7,103.3,471.7,160.5,471.7,217.8z M407.8,145.5c0-1,0-1.8,0-2.6c0-11.5,0.1-23,0-34.6
		c0-4.1-0.3-8.2-0.9-12.3c-1.7-12.7-9.9-21.7-22.3-23.9c-12.9-2.4-26-2.4-38.9,0.1c-10.4,2-17.8,8.2-20.8,18.6
		c-1.4,5-2.3,10.3-2.3,15.4c-0.2,40.3-0.1,80.7-0.1,121c0,4.2,0.3,8.4,0.7,12.6c1.5,13.1,9.9,22.6,22.8,25.1
		c12.4,2.4,25,2.2,37.4,0.3c11.4-1.7,19.5-8.3,22.7-19.6c1.2-4.3,1.9-8.8,2-13.2c0.2-14.8,0.1-29.7,0.1-44.5c0-0.6-0.1-1.3-0.1-2
		c-9.7,0-19.2,0-29,0c0,1,0,1.9,0,2.8c0,11.8,0,23.6,0,35.5c0,2.6,0,5.2-0.1,7.7c-0.3,4.3-2.7,7.4-7,7.9c-3.8,0.5-7.7,0.6-11.5,0.3
		c-4-0.3-7-2.4-8-6.5c-0.4-1.5-0.5-3.1-0.6-4.6c0-37.3,0-74.6,0-111.9c0-3.2,0-6.4,0-9.5c0.1-6.7,3.7-10.4,10.4-10.5
		c1.6,0,3.3,0,4.9,0c8.1,0,11.3,3.2,11.3,11.2c0,11.7,0,23.3,0,35c0,0.8,0,1.6,0,2.4C388.4,145.5,397.9,145.5,407.8,145.5z
		 M183.3,264.3c9.9,0,19.7,0,29.6,0c0-23.2,0-46.2,0-69.4c1,0,1.9,0,2.8,0c7.2-0.1,14.5,0.2,21.7-0.6c16.8-1.8,25.9-12.1,27.2-28.4
		c0.7-8.6,0.5-17.3,0.5-25.9c0-12.9,0-25.8-0.5-38.7c-0.2-6.8-2.5-13.2-7.1-18.5c-6.3-7.3-14.7-10-23.9-10.2
		c-16.2-0.3-32.5-0.1-48.8-0.1c-0.5,0-1,0.1-1.5,0.2C183.3,136.5,183.3,200.3,183.3,264.3z M167.5,153.1c-11.4,0-22.7,0-34,0
		c0-18,0-35.8,0-53.8c11.9,0,23.6,0,35.3,0c0-9.1,0-18,0-26.7c-21.8,0-43.4,0-64.9,0c0,64,0,127.9,0,191.7c22,0,43.8,0,65.8,0
		c0-8.3-0.1-16.4,0-24.5c0-1.9-0.6-2.3-2.4-2.3c-10.4,0.1-20.8,0-31.2,0c-0.9,0-1.7,0-2.6,0c0-19.3,0-38.2,0-57.4
		c11.4,0,22.7,0,34,0C167.5,171.1,167.5,162.3,167.5,153.1z M307.3,264.3c0-64.1,0-128,0-191.8c-9.9,0-19.6,0-29.3,0
		c0,64,0,127.9,0,191.8C287.9,264.3,297.5,264.3,307.3,264.3z M280.6,368.9c5.3,0,10.4,0,15.4,0c0-19.4,0-38.6,0-58
		c-4.7,0-9.2,0.1-13.6-0.1c-2.2-0.1-3.3,0.7-4.3,2.5c-4,6.6-8.1,13.2-12.3,20c-0.6-0.9-1-1.5-1.5-2.2c-2.9-4.7-6.2-9.2-8.6-14.2
		c-2.4-4.9-5.6-6.9-11-6.1c-3.1,0.1-6.3,0.1-9.4,0.1c0,19.6,0,38.8,0,57.9c5.2,0,10.2,0,15.4,0c0-11,0-21.8,0-33.2
		c5.1,7.9,9.9,15.2,14.9,22.9c5.1-7.8,9.9-15.1,14.7-22.5c0.1,0.1,0.3,0.1,0.4,0.2C280.6,347,280.6,357.9,280.6,368.9z M339.5,438
		c-0.1-0.1-0.1-0.3-0.2-0.4c-55.3,0-110.6,0-166,0c0.8,0.7,1.7,1.1,2.6,1.4c25.4,8.7,50.8,17.4,76.2,26.2c1.7,0.6,3.1,0.6,4.8,0
		c22.9-7.6,45.8-15.1,68.8-22.7C330.3,441.1,334.9,439.6,339.5,438z M144.5,347.1c0,2.1,0.1,4.1-0.1,5.9c0,0.6-0.7,1.3-1.3,1.5
		c-4.2,2.1-8.6,2.6-13.1,1.2c-8.5-2.6-13-11.5-10.5-20.6c2-7.1,9-12.5,16.9-11.3c4.4,0.7,8,2.8,11.6,5.5c3.1-3.8,6.2-7.5,9.5-11.5
		c-0.5-0.3-0.8-0.5-1.1-0.7c-10.9-8.3-22.8-10-35.4-5c-11.5,4.5-19.3,16.2-18.2,30.2c0.9,11.7,6.6,20.3,17.4,24.9
		c13.4,5.6,26.1,3.3,37.8-5.1c0.7-0.5,1.2-1.7,1.2-2.6c0.1-6.9,0.1-13.9,0.1-20.8c0-1.2,0-2.5,0-3.9c-8.6,0-16.9,0-25.3,0.1
		c-0.4,0-1.2,1-1.2,1.5c-0.1,2.8,0,5.6-0.1,8.4c-0.1,1.6,0.4,2.2,2.1,2.2C137.9,347,141.1,347.1,144.5,347.1z M323.2,324.1
		c10.2,0,20.3,0,30.4,0c0-4.5,0-8.7,0-13.1c-15.3,0-30.6,0-45.8,0c0,19.4,0,38.6,0,57.8c15.5,0,30.8,0,46.2,0c0-4.4,0-8.7,0-13.2
		c-10.3,0-20.5,0-30.8,0c0-3.2,0-6.2,0-9.5c9.1,0,18.1,0,27.2,0c0-4.4,0-8.4,0-12.7c-9.1,0-18.1,0-27.2,0
		C323.2,330.4,323.2,327.5,323.2,324.1z M164.8,369c5.3,0,10.3,0.1,15.2-0.1c0.6,0,1.5-0.8,1.8-1.4c1.2-2.6,2.1-5.3,3.3-7.9
		c0.3-0.6,1.2-1.3,1.8-1.3c6.6-0.1,13.1,0,19.7-0.1c1.2,0,1.7,0.5,2,1.5c1,2.6,2,5.2,3.1,7.8c0.3,0.6,1,1.4,1.6,1.4
		c5.1,0.1,10.3,0.1,15.8,0.1c-1.2-2.8-2.3-5.4-3.4-8c-6.9-16.4-13.8-32.7-20.6-49.1c-0.5-1.1-1.1-1.5-2.3-1.5
		c-3.8,0.1-7.7,0.1-11.5,0c-1.6-0.1-2.2,0.6-2.7,1.9c-4.4,10.5-8.8,21-13.3,31.6C171.9,352.1,168.4,360.4,164.8,369z M407.6,317.7
		c-0.9-0.7-1.5-1.2-2.1-1.7c-7.8-5.5-16.7-6.8-25.9-5.9c-4.2,0.4-8.1,1.9-11.5,4.7c-7.5,6.2-8.4,18.2-1.8,24.8
		c2.9,2.9,6.7,4.3,10.5,5.4c4.5,1.3,9,2.6,13.5,3.9c2,0.6,3.3,1.9,2.9,4.3c-0.4,2.2-2.1,2.9-4,3.2c-4.2,0.8-8.3,0-12.1-1.6
		c-3.2-1.3-6.1-3.2-9.3-4.9c-2.8,3.3-5.7,6.8-8.6,10.3c0.4,0.4,0.5,0.7,0.8,0.8c11.2,8.7,23.7,11.2,37.2,7c7-2.2,11.1-7.3,11.9-14.8
		c0.8-7.4-2-13.1-8.8-16.5c-1.3-0.6-2.7-1.3-4.1-1.7c-4.7-1.4-9.4-2.6-14-4c-3.4-1-4.8-2.6-4.4-4.7c0.4-2.1,2.5-3.4,5.7-3.4
		c0.3,0,0.6,0,0.9,0c4.1,0.1,7.8,1.4,11.3,3.3c1.3,0.7,2.6,1.5,4,2.3c1.7-2.5,3.3-4.7,4.9-7C405.6,320.5,406.5,319.2,407.6,317.7z"
		/>
	<path fill="#FFFFFF" d="M213,168.7c0-23.4,0-46.6,0-70.1c1.6,0,3.1,0,4.7,0c2.5,0,5,0,7.5,0c6.6,0,10.1,3.5,10.2,10.1
		c0.1,9.5,0,19.1,0,28.6c0,6.9,0,13.7,0,20.6c0,7.4-3.4,10.8-10.9,10.8C220.7,168.7,216.9,168.7,213,168.7z"/>
	<path fill="#FFFFFF" d="M196.8,329.5c2.2,5.6,4.2,10.6,6.2,15.8c-4.2,0-8.2,0-12.5,0C192.6,340.2,194.6,335.2,196.8,329.5z"/>
</g>
</svg>
