<?xml version="1.0" encoding="utf-8"?>
<!-- Generator: Adobe Illustrator 18.0.0, SVG Export Plug-In . SVG Version: 6.00 Build 0)  -->
<!DOCTYPE svg PUBLIC "-//W3C//DTD SVG 1.1//EN" "http://www.w3.org/Graphics/SVG/1.1/DTD/svg11.dtd">
<svg version="1.1" id="GIMP_1_" xmlns="http://www.w3.org/2000/svg" xmlns:xlink="http://www.w3.org/1999/xlink" x="0px" y="0px"
	 viewBox="0 0 512 512" enable-background="new 0 0 512 512" xml:space="preserve">
<path id="GIMP" fill="#FFFFFF" d="M139.3,227.3c-25.5-34.9-36.8-74.3-46.2-115c1.3,1.5,2.6,3,3.8,4.5c29,37.7,62.6,69.8,106.3,90.1
	c66.7,31,152.5,16.1,201-47.6c14-18.4,24.9-39,37.2-58.7c1-1.6,1.8-3.3,3.8-7.1c0.6,7.3,1.2,12.3,1.3,17.4
	c0.4,24.2,1.4,48.4,0.8,72.6c-0.6,24-10.3,44.4-28.2,60.8c-8.8,8.1-17.5,16.4-26,24.8c-1.8,1.8-3.7,4.5-3.9,6.8
	c-1.7,25.1-12.4,47.1-23.1,69.1c-2.3,4.7-4.5,9.4-7.1,14.9c18,2.3,35.1,4.6,52.3,6.6c2,0.2,4.7-1.1,6.4-2.6c6.1-5.5,13-7.2,20.7-4.7
	c5,1.6,9.9,3.5,14.6,5.7c19.1,9,38.1,18.2,57.9,29.2c-9.2,3.1-18.3,6.7-27.7,9.1c-17.8,4.7-35.8,6.8-53.5-0.7
	c-2.7-1.2-5.8-2.4-7.7-4.4c-6.2-6.7-13.8-7.5-22.4-7.2c-14.2,0.5-29.1,3-42.5-0.3c-19.1-4.7-32.3,4.3-47.2,12.1
	c-18.6,9.7-39,13.3-59.8,14.8c-52,3.7-101.5-7.2-149.5-26.2c-11.5-4.6-22.4-10.6-33.5-16.2c-8.4-4.2-16.8-8.6-25.1-13.1
	c-22.7-12.3-34.6-32.3-39.6-56.9c-2.8-13.8-2-27.4,4.2-40.3c9.8-20.6,31.2-28.3,51.4-17.7c7,3.7,13.4,8.8,19,14.3
	c4.5,4.4,9.3,3.9,13.7,2.6c2.2-0.7,3.9-4.9,4.6-7.9C100.1,237.5,114.8,227.3,139.3,227.3z M247.1,288.6c0-12.6-8.2-22.2-19.2-22.2
	c-10.7,0-19.7,10-19.7,22c0,12.1,8.9,22.4,19.4,22.6C238.2,311,247.1,300.8,247.1,288.6z M124.9,274.8c-0.2,10.2,7.3,19,16.2,19
	c8.8,0,16-8,16.2-18.1c0.2-10.6-6.8-18.7-16.1-18.8C132.1,256.9,125.1,264.7,124.9,274.8z"/>
</svg>
