<?xml version="1.0" encoding="utf-8"?>
<!-- Generator: Adobe Illustrator 18.0.0, SVG Export Plug-In . SVG Version: 6.00 Build 0)  -->
<!DOCTYPE svg PUBLIC "-//W3C//DTD SVG 1.1//EN" "http://www.w3.org/Graphics/SVG/1.1/DTD/svg11.dtd">
<svg version="1.1" id="GitHubDesktop_1_" xmlns="http://www.w3.org/2000/svg" xmlns:xlink="http://www.w3.org/1999/xlink" x="0px"
	 y="0px" viewBox="0 0 512 512" enable-background="new 0 0 512 512" xml:space="preserve">
<g id="GitHubDesktop">
	<path fill-rule="evenodd" clip-rule="evenodd" fill="#FFFFFF" d="M256,12.2c-138.1,0-250,111.9-250,250
		c0,110.5,71.6,204.2,171,237.2c12.5,2.3,17.1-5.4,17.1-12c0-6-0.2-25.7-0.3-46.5c-69.5,15.1-84.2-29.5-84.2-29.5
		c-11.4-28.9-27.8-36.6-27.8-36.6c-22.7-15.5,1.7-15.2,1.7-15.2c25.1,1.8,38.3,25.8,38.3,25.8c22.3,38.2,58.5,27.2,72.8,20.8
		c2.2-16.2,8.7-27.2,15.9-33.4c-55.5-6.3-113.9-27.8-113.9-123.6c0-27.3,9.8-49.6,25.8-67.1c-2.6-6.3-11.2-31.7,2.4-66.2
		c0,0,21-6.7,68.8,25.6c19.9-5.5,41.3-8.3,62.6-8.4c21.2,0.1,42.6,2.9,62.6,8.4c47.7-32.3,68.7-25.6,68.7-25.6
		c13.6,34.4,5,59.9,2.5,66.2c16,17.5,25.7,39.8,25.7,67.1c0,96-58.5,117.2-114.2,123.4c9,7.8,17,23,17,46.3
		c0,33.5-0.3,60.4-0.3,68.6c0,6.7,4.5,14.4,17.2,12C434.5,466.3,506,372.6,506,262.2C506,124.1,394.1,12.2,256,12.2z"/>
	<path fill="#FFFFFF" d="M100.7,371.1c-0.5,1.2-2.5,1.6-4.3,0.8c-1.8-0.8-2.8-2.5-2.2-3.8c0.5-1.3,2.5-1.6,4.3-0.8
		C100.3,368.2,101.3,369.9,100.7,371.1L100.7,371.1z M97.6,368.8"/>
	<path fill="#FFFFFF" d="M110.8,382.4c-1.2,1.1-3.5,0.6-5.1-1.2c-1.6-1.7-1.9-4.1-0.7-5.2c1.2-1.1,3.5-0.6,5.1,1.2
		C111.7,379,112.1,381.3,110.8,382.4L110.8,382.4z M108.4,379.9"/>
	<path fill="#FFFFFF" d="M120.7,396.8c-1.5,1.1-4,0.1-5.6-2.2c-1.5-2.2-1.5-4.9,0-6c1.5-1.1,4-0.1,5.6,2.1
		C122.2,393.1,122.2,395.7,120.7,396.8L120.7,396.8z M120.7,396.8"/>
	<path fill="#FFFFFF" d="M134.2,410.7c-1.4,1.5-4.3,1.1-6.4-1c-2.2-2-2.8-4.9-1.4-6.4c1.4-1.5,4.3-1.1,6.5,1
		C135,406.3,135.6,409.2,134.2,410.7L134.2,410.7z M134.2,410.7"/>
	<path fill="#FFFFFF" d="M152.8,418.8c-0.6,2-3.4,2.8-6.2,2c-2.8-0.9-4.7-3.1-4.1-5.1c0.6-2,3.4-2.9,6.3-2
		C151.5,414.5,153.4,416.8,152.8,418.8L152.8,418.8z M152.8,418.8"/>
	<path fill="#FFFFFF" d="M173.3,420.3c0.1,2.1-2.3,3.8-5.3,3.8c-3,0.1-5.4-1.6-5.4-3.6c0-2.1,2.3-3.8,5.3-3.8
		C170.8,416.6,173.3,418.2,173.3,420.3L173.3,420.3z M173.3,420.3"/>
	<path fill="#FFFFFF" d="M192.3,417.1c0.4,2-1.7,4.1-4.7,4.6c-2.9,0.5-5.6-0.7-6-2.7c-0.4-2.1,1.7-4.1,4.6-4.7
		C189.3,413.8,191.9,415,192.3,417.1L192.3,417.1z M192.3,417.1"/>
</g>
</svg>
