<?xml version="1.0" encoding="UTF-8" standalone="no"?>
<!DOCTYPE svg PUBLIC "-//W3C//DTD SVG 1.1//EN" "http://www.w3.org/Graphics/SVG/1.1/DTD/svg11.dtd">
<svg width="100%" height="100%" viewBox="0 0 390 390" version="1.1" xmlns="http://www.w3.org/2000/svg" xmlns:xlink="http://www.w3.org/1999/xlink" xml:space="preserve" style="fill-rule:evenodd;clip-rule:evenodd;stroke-linejoin:round;stroke-miterlimit:1.41421;">
    <path d="M193.884,15.501C205.05,15.587 216.302,19.719 224.75,27.83L364,170.16C419.35,225.51 302.7,238.34 268.95,258.05C257.2,270.04 305.07,278.04 300.14,292.81C290.16,322.7 263,303.71 233.83,333.54C222.1,345.53 256.27,344.4 244.54,356.4C222.4,372.6 177.13,383.88 173.51,364.1C168.43,336.42 141.3,347.78 129.57,335.79C123.888,329.982 129.344,324.003 135.148,318.019L136.272,316.861C142.076,310.877 147.532,304.898 141.85,299.09C130.1,287.1 70.9,275.99 59.17,264C47.44,252 104.13,243.15 92.4,231.16C59.7,214.97 -16.58,221.51 28.81,165.3L163.15,27.83C171.225,19.565 182.368,15.477 193.62,15.5L193.884,15.501ZM91.1,329.05C103,339.34 121.38,326.49 126.89,312.13C115.36,296.81 72.2,312.68 91.1,329.05ZM311.16,306.82C295.82,320.58 312.88,334.54 328,325.65C331.37,322.23 327.91,310.24 311.16,306.82ZM317.46,292.81C317.46,299.63 367.71,304.1 367.71,291.2C360.55,270.48 323.4,271.88 317.46,292.81ZM131,238.6C134.59,240.83 188.89,251.86 202.16,254.06C206.76,255.03 203.5,259.77 197.16,262.97C182.86,266.77 113.5,238.6 131,238.6ZM152.33,116.06L171.3,83.24L182.99,130.27L218.3,107.96L240.35,119.6L245.54,88.34L271.93,109.45C274.75,106.58 274.82,96.6 269.78,91.45L216.63,37.47C205.1,25.79 184.61,25.45 172.85,37.47C161.15,49.43 139.62,70.07 120.86,90.32C110.12,101.06 111.51,116.06 123.33,116.06L152.33,116.06Z" style="fill:white;"/>
</svg>
