<?xml version="1.0" standalone="no"?><!-- Generator: Gravit.io --><svg xmlns="http://www.w3.org/2000/svg" xmlns:xlink="http://www.w3.org/1999/xlink" style="isolation:isolate" viewBox="0 0 512 512" width="512" height="512"><defs><clipPath id="_clipPath_TIfJlgdUf72JJIRAspCrbdpGck6Za2Z6"><rect width="512" height="512"/></clipPath></defs><g clip-path="url(#_clipPath_TIfJlgdUf72JJIRAspCrbdpGck6Za2Z6)"><rect width="512" height="512" style="fill:rgb(32,32,32)" fill-opacity="0"/><path d=" M 327.453 71.453 L 278.627 22.627 C 266.139 10.139 245.861 10.139 233.373 22.627 L 207.236 48.764 Q 214.297 48.339 221.744 48.339 L 221.744 48.339 L 221.744 48.339 Q 252.359 48.339 280.155 55.589 L 280.155 55.589 L 280.155 55.589 Q 302.946 61.535 327.453 71.453 Z  M 336.45 80.45 L 489.373 233.373 C 501.861 245.861 501.861 266.139 489.373 278.627 L 278.627 489.373 C 266.139 501.861 245.861 501.861 233.373 489.373 L 195.976 451.976 Q 263.793 451.853 301.908 421.361 L 301.908 421.361 L 301.908 421.361 Q 340.177 390.746 340.177 337.572 L 340.177 337.572 L 340.177 337.572 Q 340.177 299.169 319.767 272.716 L 319.767 272.716 L 319.767 272.716 Q 299.356 246.263 244.303 219.945 L 244.303 219.945 L 244.303 219.945 Q 202.677 200.072 191.532 192.418 L 191.532 192.418 L 191.532 192.418 Q 180.387 184.764 175.284 176.573 L 175.284 176.573 L 175.284 176.573 Q 170.182 168.382 170.182 157.372 L 170.182 157.372 L 170.182 157.372 Q 170.182 139.647 182.804 128.636 L 182.804 128.636 L 182.804 128.636 Q 195.426 117.626 219.059 117.626 L 219.059 117.626 L 219.059 117.626 Q 238.932 117.626 259.476 122.728 L 259.476 122.728 L 259.476 122.728 Q 280.021 127.831 311.441 140.721 L 311.441 140.721 L 336.45 80.45 Z  M 103.105 359.105 L 22.627 278.627 C 10.139 266.139 10.139 245.861 22.627 233.373 L 88.985 167.015 Q 90.183 190.362 99.552 208.397 L 99.552 208.397 L 99.552 208.397 Q 110.294 229.076 128.287 244.652 L 128.287 244.652 L 128.287 244.652 Q 146.28 260.228 182.267 277.147 L 182.267 277.147 L 182.267 277.147 Q 220.67 295.409 233.158 303.734 L 233.158 303.734 L 233.158 303.734 Q 245.646 312.059 252.091 321.056 L 252.091 321.056 L 252.091 321.056 Q 258.536 330.052 258.536 341.6 L 258.536 341.6 L 258.536 341.6 Q 258.536 362.279 243.9 372.753 L 243.9 372.753 L 243.9 372.753 Q 229.264 383.226 201.871 383.226 L 201.871 383.226 L 201.871 383.226 Q 179.044 383.226 151.517 375.975 L 151.517 375.975 L 151.517 375.975 Q 130.779 370.512 103.105 359.105 Z " fill-rule="evenodd" fill="rgb(255,255,255)"/></g></svg>