<?xml version="1.0" encoding="UTF-8" standalone="no"?>
<!DOCTYPE svg PUBLIC "-//W3C//DTD SVG 1.1//EN" "http://www.w3.org/Graphics/SVG/1.1/DTD/svg11.dtd">
<svg width="100%" height="100%" viewBox="0 0 384 384" version="1.1" xmlns="http://www.w3.org/2000/svg" xmlns:xlink="http://www.w3.org/1999/xlink" xml:space="preserve" style="fill-rule:evenodd;clip-rule:evenodd;stroke-linejoin:round;stroke-miterlimit:1.41421;">
    <g transform="matrix(1,0,0,1,-64,-72)">
        <path d="M384,106.882C384,104.337 382.789,101.943 380.739,100.436C378.688,98.929 376.043,98.487 373.614,99.246C330.471,112.728 166.141,164.081 133.614,174.246C130.274,175.289 128,178.382 128,181.882C128,198.997 128,248.658 128,265.966C128,269.537 130.368,272.677 133.802,273.658C156.76,280.217 240,304 240,304C240,304 156.76,327.783 133.802,334.342C130.368,335.323 128,338.463 128,342.034C128,357.879 128,400.837 128,421.118C128,423.663 129.211,426.057 131.261,427.564C133.312,429.071 135.957,429.513 138.386,428.754C181.529,415.272 345.859,363.919 378.386,353.754C381.726,352.711 384,349.618 384,346.118C384,329.003 384,279.342 384,262.034C384,258.463 381.632,255.323 378.198,254.342C355.24,247.783 272,224 272,224C272,224 355.24,200.217 378.198,193.658C381.632,192.677 384,189.537 384,185.966C384,170.121 384,127.163 384,106.882Z" style="fill:rgb(255,152,0);"/>
        <g transform="matrix(1,0,0,1,64,72)">
            <path d="M318.052,279.351C317.101,280.451 315.845,281.298 314.386,281.754L313.831,281.928L74.386,356.754C71.957,357.513 69.312,357.071 67.261,355.564C65.211,354.057 64,351.663 64,349.118L64,270.034C64,266.462 66.368,263.323 69.802,262.342C92.76,255.783 176,232 176,232L318.052,279.351Z" style="fill:url(#_Linear1);"/>
        </g>
    </g>
    <defs>
        <linearGradient id="_Linear1" x1="0" y1="0" x2="1" y2="0" gradientUnits="userSpaceOnUse" gradientTransform="matrix(36.8675,-101.357,102.902,36.3139,217.671,348.996)"><stop offset="0" style="stop-color:black;stop-opacity:0"/><stop offset="0.32" style="stop-color:black;stop-opacity:0"/><stop offset="0.7" style="stop-color:black;stop-opacity:0.0392157"/><stop offset="1" style="stop-color:black;stop-opacity:0.2"/></linearGradient>
    </defs>
</svg>
