<?xml version="1.0" encoding="utf-8"?>
<!-- Generator: Adobe Illustrator 18.0.0, SVG Export Plug-In . SVG Version: 6.00 Build 0)  -->
<!DOCTYPE svg PUBLIC "-//W3C//DTD SVG 1.1//EN" "http://www.w3.org/Graphics/SVG/1.1/DTD/svg11.dtd">
<svg version="1.1" id="TeamSpeak_1_" xmlns="http://www.w3.org/2000/svg" xmlns:xlink="http://www.w3.org/1999/xlink" x="0px"
	 y="0px" viewBox="0 0 512 512" enable-background="new 0 0 512 512" xml:space="preserve">
<g id="TeamSpeak">
	<path fill="#FFFFFF" d="M443.5,275.4c0-10.4-0.1-20.8,0-31.2c0.1-20.6-2-40.9-7.5-60.8c-5.3-19.4-13.5-37.5-25.1-54
		c-12.7-18.1-28.3-33.2-46.2-46c-16-11.5-33.2-20.7-51.9-26.8c-13.4-4.4-27.1-7.1-41.2-8.1c-25-1.9-49.4,1.2-73.3,8.8
		c-18.4,5.9-35.5,14.6-51.2,25.9c-20.1,14.4-37,31.9-50.3,52.8c-11.3,17.9-18.6,37.5-23.7,58c-5.4,21.5-4.8,43.3-4.8,65.2
		c0.1,20.1,0.1,40.2,0,60.3c0,8.8-4.2,12.8-12.9,12.7c-9.3,0-18.2-1.3-26.5-6c-13.2-7.4-21.1-18.7-22.3-33.6
		c-1-12.1-0.6-24.3-0.4-36.5c0.1-7.2,0.4-14.4,1.5-21.4c2-12.9,9.5-22.2,21-28.1c5-2.6,8-6.3,9-11.9c3.8-20.2,10.4-39.4,19.8-57.6
		c5-9.7,11.1-18.8,16.7-28.2c0.4-0.6,1-1,1.5-1.5c2.1-2,3.1-4.4,1.4-6.9c-4-6-2.1-11,2.2-15.8c15.6-17.5,33.1-32.8,53.1-45.1
		c19.6-12,40.7-20.1,63-25.5c26.2-6.4,52.6-9.4,79.5-7.5c22.9,1.6,45,6.7,66.3,15.3C371,34,397.1,51.7,420.6,73.4
		c3.4,3.1,6.8,6.1,10,9.4c5,5.1,7,11.6,2.7,17.8c-1.3,1.8-0.8,3.3,0.4,4.8c10.3,13.5,18.7,28.2,25.5,43.8
		c6.5,15,11.1,30.7,14.1,46.8c0.7,3.8,2.6,6.3,6.1,8.1c10.6,5.3,19.2,12.8,22.7,24.4c1.9,6.1,2.5,12.6,3.1,19
		c1.4,15.7,1.2,31.4-1,47c-2.3,16.8-12.4,27.7-27.4,34.5c-6.9,3.1-14.3,4.2-21.9,3.3c-6.2-0.7-9.5-3.3-10.7-9.4
		c-0.5-2.3-0.6-4.8-0.6-7.1C443.4,302.3,443.5,288.8,443.5,275.4z"/>
	<path fill="#FFFFFF" d="M187.9,370.6c-10.7-0.8-21.4-1-32-2.4c-15.7-2-27.9-10.1-36.3-23.7c-7.3-11.8-12.6-24.4-14.4-38.2
		c-2-14.9-2.2-29.7,4.3-43.8c6.9-14.8,22.7-20.3,37.5-13.2c13.1,6.2,24.9,14.3,36,23.3c12.6,10.2,25.1,20.5,37.1,31.4
		c8,7.2,14.7,15.8,20.2,25.2c9.2,15.7,0.4,30.1-12.4,36.6c-8.4,4.3-17.5,4.2-26.5,4.4c-4.5,0.1-9,0-13.4,0
		C187.9,370.5,187.9,370.6,187.9,370.6z"/>
	<path fill="#FFFFFF" d="M291.6,506c-19.4-0.3-38.6-0.8-57.5-4.4c-3.6-0.7-7.2-2-10.7-3.4c-1.2-0.5-2.1-2.1-3.1-3.1
		c1.1-1,2.1-2.5,3.4-2.8c6.6-1.5,13.2-3,19.9-3.8c18.2-2.2,36.5-3.1,54.5-6.2c31.1-5.2,59.6-17.3,84.4-37.2
		c15.4-12.4,28.4-26.9,38.2-44c5.4-9.3,9.4-19.4,14.1-29.1c0.4-0.7,0.7-1.5,0.9-2.3c2.4-7.7,7.1-7.2,11.1-1.9
		c2.8,3.6,4.4,8.2,5.9,12.5c5.2,15.8,3.4,31.6-0.8,47.3c-4.1,15.6-13,28.1-25,38.7c-9.6,8.5-19.7,16.3-31.3,21.9
		c-10.8,5.1-22.1,8.4-33.7,11C338.7,504.3,315,505.7,291.6,506z"/>
	<path fill="#FFFFFF" d="M406.1,319.4c-0.4,17.6-7.3,32.3-20.5,43.8c-8.3,7.2-18.3,11.3-29.2,10.7c-12.4-0.8-24.8-2.8-37.1-4.6
		c-8.6-1.3-17.2-2.7-25.7-4.8c-6.2-1.5-11.3-5.3-15.3-10.2c-5.2-6.3-4.8-14.8,0.7-21.8c6.8-8.6,15.9-14.1,25.5-18.6
		c16.6-7.9,33.6-14.8,51.4-19.5c9.8-2.6,19.7-4.3,29.9-3.1c14.9,1.8,20.3,11.3,20.5,24.7C406.3,317.1,406.1,318.3,406.1,319.4z"/>
</g>
</svg>
