<?xml version="1.0" encoding="UTF-8" standalone="no"?>
<!DOCTYPE svg PUBLIC "-//W3C//DTD SVG 1.1//EN" "http://www.w3.org/Graphics/SVG/1.1/DTD/svg11.dtd">
<svg width="100%" height="100%" viewBox="0 0 512 512" version="1.1" xmlns="http://www.w3.org/2000/svg" xmlns:xlink="http://www.w3.org/1999/xlink" xml:space="preserve" style="fill-rule:evenodd;clip-rule:evenodd;stroke-linejoin:round;stroke-miterlimit:1.41421;">
    <g transform="matrix(1.29415,0,0,1.29415,-63.4218,-53.3967)">
        <path d="M156.689,133.101L200.361,133.349L221.718,95.67L366.979,57.033L405.995,201.623L383.91,239.073L405.997,276.752L367.007,421.113L221.986,382.646L200.329,344.814L156.533,345.038L50.552,239.073L156.689,133.101ZM124.229,257.186L251.176,257.186L314.582,366.904L204.025,338.551L124.229,257.186ZM345.944,129.439L376.733,239.073L345.923,348.634L282.39,239.206L345.944,129.439ZM250.99,221.143L314.319,111.511L204.187,139.586L123.956,221.143L250.99,221.143Z" style="fill:white;"/>
    </g>
</svg>
