<?xml version="1.0" encoding="utf-8"?>
<!-- Generator: Adobe Illustrator 18.0.0, SVG Export Plug-In . SVG Version: 6.00 Build 0)  -->
<!DOCTYPE svg PUBLIC "-//W3C//DTD SVG 1.1//EN" "http://www.w3.org/Graphics/SVG/1.1/DTD/svg11.dtd">
<svg version="1.1" id="UPlay_1_" xmlns="http://www.w3.org/2000/svg" xmlns:xlink="http://www.w3.org/1999/xlink" x="0px" y="0px"
	 viewBox="0 0 512 512" enable-background="new 0 0 512 512" xml:space="preserve">
<path id="UPlay" fill="#FFFFFF" d="M37.6,157.8c-5.5-4.4-11.2-9-16.8-13.5C65.4,48.8,170.4-6.2,279.7,8.3
	C386,22.4,474,105,493.3,208.7c29.6,159.4-82,298.4-238.9,297.3c-116.3-0.8-213.6-85-236.7-199.1C6.9,253.7,21.4,206.9,37.6,157.8z
	 M168.2,228.9c-26.4,13.4-42.5,35.3-49.9,63.2c-20.9,79.1,38.9,159.9,125.1,169.5c136.3,15.2,243.4-113.8,208.2-252.4
	C431.2,128.5,378,76.8,298.3,55.7c-75.8-19.9-144.2-3.5-200.3,53.7c-7.2,7.3-12.7,16.3-19,24.5c9.5-0.6,15.8-4.3,22-8
	c91-54.6,198.6-35.6,257.3,45.5c47.9,66.2,39.2,160.1-19.6,211.4c-67.8,59.2-174,30.8-193.7-52.2C136,293.3,148.1,260.6,168.2,228.9
	z M287.2,329.8c20.6-32.5,17.5-61.8-7.1-80.1c-23.5-17.4-56.7-12.9-78.1,10.6c-25.6,28.1-22.4,71.2,7.3,95
	c29.7,23.9,69.9,18.1,93.7-14.1C298.1,337.7,293.2,334.2,287.2,329.8z M344.7,242c-9.6-54.6-58.8-95.5-119.3-104.4
	c-61.7-9.1-125.5,25.6-154,83.8c-19.6,40-19.8,94.2-0.3,113.2c10.6-88.4,35.3-131.4,91.3-151.9C235.3,156,293.2,183.4,344.7,242z"/>
</svg>
