<?xml version="1.0" encoding="utf-8"?>
<!-- Generator: Adobe Illustrator 18.0.0, SVG Export Plug-In . SVG Version: 6.00 Build 0)  -->
<!DOCTYPE svg PUBLIC "-//W3C//DTD SVG 1.1//EN" "http://www.w3.org/Graphics/SVG/1.1/DTD/svg11.dtd">
<svg version="1.1" id="VisualParadigm" xmlns="http://www.w3.org/2000/svg" xmlns:xlink="http://www.w3.org/1999/xlink" x="0px"
	 y="0px" viewBox="0 0 512 512" enable-background="new 0 0 512 512" xml:space="preserve">
<g id="VisualParadigm_1_">
	<path fill="#FFFFFF" d="M254.6,511c-1.2-1.4-2.4-2.9-3.7-4.3c-65.2-65.2-130.3-130.4-195.5-195.5c-1.3-1.3-2.6-2.6-3.7-3.6
		c10.8-10.8,20.5-20.5,30.7-30.6c57.2,57.2,115,115,172.7,172.7c58.3-58.3,116.1-116.1,173.6-173.6c10.7,10.7,19.9,19.9,31.4,31.4
		c-1.1,1.1-2.5,2.4-3.9,3.9c-65.6,65.5-131.1,131-196.6,196.5c-1,1-2,2.1-3,3.1C255.9,511,255.3,511,254.6,511z"/>
	<path fill="#FFFFFF" d="M336.6,185.7c-27.7-27.4-54.9-54.2-81.6-80.5c-26,26-52.7,52.7-79.4,79.4c53.7,53.7,108.1,108,162.2,162.1
		c-27.9,27.9-55,55-81.7,81.7c-71.1-71.1-142.6-142.5-213.7-213.7C113.5,143.6,184.9,72.2,256.1,1c71,71,142.5,142.5,213.6,213.6
		c-37.1,37.1-74.4,74.4-111.3,111.3c-26.6-26.6-53.8-53.8-81.1-81C296.5,225.6,316.5,205.7,336.6,185.7z"/>
</g>
</svg>
